<svg width="24" height="24" viewBox="0 0 24 24" fill="none" xmlns="http://www.w3.org/2000/svg">
<path d="M15.619 14.7706C15.6884 13.0534 14.4468 12.7187 12.7711 12.441C12.4174 12.497 12.3801 12.5935 12.2685 12.7013C10.6943 14.2214 10.5266 14.6266 11.4863 16.1473C12.213 17.2987 12.684 18.3166 13.221 18.7011C14.0879 19.322 14.946 18.9895 15.4362 17.8085C15.436 17.8083 15.5821 15.6808 15.619 14.7706Z" fill="#32D74B"/>
<path d="M6.88855 13.4612C8.86863 14.6763 10.0827 13.439 11.5165 11.6545C11.6839 11.2022 11.5946 11.0946 11.5411 10.8924C10.7869 8.04052 10.4194 7.57603 7.99236 7.69935C6.15443 7.79281 4.64295 7.67407 3.83502 8.05076C2.53054 8.65904 2.35608 9.88606 3.42603 11.2414C3.42582 11.2416 5.8389 12.8172 6.88855 13.4612Z" fill="#FF453A"/>
<path d="M13.8033 6.60871C11.9556 7.522 12.3163 9.01503 12.986 10.9309C13.248 11.2695 13.3712 11.2532 13.5485 11.3081C16.0526 12.085 16.5756 12.0279 17.6253 10.1492C18.4201 8.72658 19.2213 7.64858 19.3178 6.86514C19.4737 5.60022 18.631 4.89172 17.106 5.05621C17.106 5.05621 14.7827 6.12462 13.8033 6.60871Z" fill="#FFD60A"/>
</svg>
